<mxfile host="65bd71144e">
    <diagram id="5TirflTdHdzXRFElVMiw" name="Page-1">
        <mxGraphModel dx="267" dy="379" grid="1" gridSize="10" guides="1" tooltips="1" connect="1" arrows="1" fold="1" page="1" pageScale="1" pageWidth="850" pageHeight="1100" math="0" shadow="0">
            <root>
                <mxCell id="0"/>
                <mxCell id="1" parent="0"/>
                <mxCell id="2" value="" style="rounded=1;whiteSpace=wrap;html=1;strokeColor=#0000FF;strokeWidth=3;fillColor=none" vertex="1" parent="1">
                    <mxGeometry x="200" y="70" width="400" height="300" as="geometry"/>
                </mxCell>
                <mxCell id="3" value="Wheel of Fortune!" style="text;html=1;fontSize=28;fontColor=#0000FF;fontStyle=1" vertex="1" parent="1">
                    <mxGeometry x="264" y="20" width="300" height="50" as="geometry"/>
                </mxCell>
                <mxCell id="4" value="Try your luck!" style="rounded=1;whiteSpace=wrap;html=1;fillColor=#4CAF50;fontColor=#FFFFFF;fontSize=18" vertex="1" parent="1">
                    <mxGeometry x="280" y="100" width="240" height="60" as="geometry"/>
                </mxCell>
                <mxCell id="5" value="Unlucky! May be next time!" style="text;html=1;fontColor=#FF0000;fontSize=18;fontStyle=1" vertex="1" parent="1">
                    <mxGeometry x="270" y="190" width="270" height="40" as="geometry"/>
                </mxCell>
                <mxCell id="6" value="Wins: 7 | Losses: 15" style="text;html=1;fontSize=16" vertex="1" parent="1">
                    <mxGeometry x="285" y="230" width="240" height="40" as="geometry"/>
                </mxCell>
                <mxCell id="7" value="Reset Statistics" style="rounded=1;whiteSpace=wrap;html=1;fillColor=#9E9E9E;fontColor=#FFFFFF;fontSize=16" vertex="1" parent="1">
                    <mxGeometry x="320" y="280" width="160" height="50" as="geometry"/>
                </mxCell>
            </root>
        </mxGraphModel>
    </diagram>
</mxfile>